# xmcd
#
# Track frame offsets:
#	150
#	12072
#	24595
#	36400
#	49737
#	60660
#	72727
#	84785
#	98087
#	110400
#	121682
#	132992
#	144047
#	156045
#	169165
#	179615
#	190530
#	203800
#	214457
#	224892
#	237272
#	247977
#	258680
#	269570
#	282605
#	294430
#	308327
#	319612
#	331270
#	344242
#
# Disc length: 4743 seconds
#
# Revision: 1
# Processed by: cddbd v1.4PL0 Copyright (c) Steve Scherf et al.
# Submitted via: audiograbber 1.80
#
DISCID=c912851e
DTITLE=jimmie davis - you are my sunshine disc 4
DYEAR=1900
DGENRE=
TTITLE0=i dreamed of an old love affair 1942
TTITLE1=i've got my heart on my sleeve 1942
TTITLE2=don't you cry over me 1942
TTITLE3=live and let live 1942
TTITLE4=all because you said goodbye 1947
TTITLE5=what's the matter with you darling 1947
TTITLE6=a sinner's prayer 1942
TTITLE7=where is my boy tonight? 1942 
TTITLE8=columbus stockade blues 1943
TTITLE9=plant some flowers by my grave 1942
TTITLE10=walkin' my blues away 1943
TTITLE11=what happened 1947
TTITLE12=i never say goodbye 1947
TTITLE13=there's a chill on the hill tonight 1944
TTITLE14=is it too late now 1944
TTITLE15=there's a new moon over my shoulder 1945
TTITLE16=grievin' my heart out for you 1946
TTITLE17=i'm happy i can ride the open range 1998
TTITLE18=time alone will tell 1998
TTITLE19=love please don't let me down 1945
TTITLE20=no good for nothin' 1949
TTITLE21=i'm hurt too much to cry 1947
TTITLE22=i'm sorry if that's the way you feel 1946
TTITLE23=when it's harvest time (sweet angeline) 1949
TTITLE24=when you were a boy on my knee 1949
TTITLE25=i'm only in the way 1948
TTITLE26=just thinking of you 1948
TTITLE27=the beginning of the end 1998
TTITLE28=bang bang 1947
TTITLE29=in the pines 1998
EXTD=
EXTT0=
EXTT1=
EXTT2=
EXTT3=
EXTT4=
EXTT5=
EXTT6=
EXTT7=
EXTT8=
EXTT9=
EXTT10=
EXTT11=
EXTT12=
EXTT13=
EXTT14=
EXTT15=
EXTT16=
EXTT17=
EXTT18=
EXTT19=
EXTT20=
EXTT21=
EXTT22=
EXTT23=
EXTT24=
EXTT25=
EXTT26=
EXTT27=
EXTT28=
EXTT29=
PLAYORDER=
